<?xml version="1.0" standalone="no"?><!DOCTYPE svg PUBLIC "-//W3C//DTD SVG 1.1//EN" "http://www.w3.org/Graphics/SVG/1.1/DTD/svg11.dtd"><svg t="1724252870861" class="icon" viewBox="0 0 1024 1024" version="1.1" xmlns="http://www.w3.org/2000/svg" p-id="16266" xmlns:xlink="http://www.w3.org/1999/xlink" width="200" height="200"><path d="M85.643636 767.069091h426.356364v85.643636H85.643636v-85.643636z m0-297.890909h597.643637v85.643636H85.643636v-85.643636z m0-297.890909h852.712728v85.643636H85.643636V171.287273z m724.247273 476.625454V383.534545H1024v85.643637h-128.465455v297.890909c0 70.749091-57.716364 128.465455-128.465454 128.465454s-128.465455-57.716364-128.465455-128.465454c0-70.749091 57.716364-128.465455 128.465455-128.465455 16.756364 1.861818 31.650909 3.723636 42.821818 9.309091z m-42.821818 161.978182c24.203636 0 42.821818-18.618182 42.821818-42.821818s-18.618182-42.821818-42.821818-42.821818C744.727273 726.109091 726.109091 744.727273 726.109091 767.069091s18.618182 42.821818 40.96 42.821818z" p-id="16267" fill="#808080"></path></svg>