<?xml version="1.0" standalone="no"?><!DOCTYPE svg PUBLIC "-//W3C//DTD SVG 1.1//EN" "http://www.w3.org/Graphics/SVG/1.1/DTD/svg11.dtd"><svg t="1724252911135" class="icon" viewBox="0 0 1024 1024" version="1.1" xmlns="http://www.w3.org/2000/svg" p-id="17440" xmlns:xlink="http://www.w3.org/1999/xlink" width="200" height="200"><path d="M1011.36 410.42c-0.07-14.5-3.02-28.85-8.67-42.21a89.935 89.935 0 0 0-45.38-59.9 379.109 379.109 0 0 0-108.6-64.44c84.28-61.27 172.91-73.07 150.76-120.72-21.6-46.29-173.27 5.9-231.45 77.15-3.81 4.5-7.38 9.2-10.71 14.07a998.815 998.815 0 0 0-245.61-29.04c-194.46 0-363.06 49.92-445.65 122.99a89.803 89.803 0 0 0-45.38 60.36c-5.69 13.34-8.64 27.7-8.67 42.21-0.01 3.64 0.19 7.28 0.59 10.89-0.41 6.81-0.59 14.07-0.59 21.78 11.47 276.14 244.63 490.7 520.77 479.23 260.07-10.8 468.43-219.17 479.23-479.23 0-7.72-0.18-14.98-0.54-21.78-0.28-4.1-0.1-7.73-0.1-11.36zM511.52 572.89c-227.5 0-412.03-72.61-412.03-162.47s184.34-162.01 412.03-162.01c70.48-0.37 140.79 7.09 209.62 22.24a553.424 553.424 0 0 1-68.07 117.09c-61.54 45.84-102.06 7.26-199.68 59.9s-99.3 62.63-99.3 62.63c84.99 7.01 170.33 8.82 255.55 5.45 100.11-8.17 97.71-5.9 94.12-23.15-10.66-50.83 32.68-128.89 85.45-192.87 2-2.27 3.99-4.99 5.76-7.26 79.1 29.95 128.39 71.7 128.39 117.99 0.01 89.85-184.56 162.46-411.84 162.46z" p-id="17441" fill="#808080"></path></svg>