<?xml version="1.0" standalone="no"?><!DOCTYPE svg PUBLIC "-//W3C//DTD SVG 1.1//EN" "http://www.w3.org/Graphics/SVG/1.1/DTD/svg11.dtd"><svg t="1724246065498" class="icon" viewBox="0 0 1024 1024" version="1.1" xmlns="http://www.w3.org/2000/svg" p-id="4641" xmlns:xlink="http://www.w3.org/1999/xlink" width="200" height="200"><path d="M749.1 813.3c9.8 10.2 26 10.4 36.1 0.6 10.2-9.8 10.4-26 0.6-36.1l-0.6-0.6c-10.1-9.8-26.3-9.5-36.1 0.6-9.6 9.9-9.6 25.6 0 35.5z m54.2-54.2c19.9 20 19.9 52.3 0 72.3-20 20-52.3 20-72.3 0-20-19.9-20-52.3 0-72.2 20-20 52.3-20 72.3-0.1z m-169.5-23.4l36.3 36.3c-0.7 2.6-1.2 5.4-1.7 8.1 0.1 3-0.3 6.1-1.3 8.9-2.6 29.8 8.8 62.2 29.9 83.4 37.7 38 108.8 40.1 149.1-0.5s34.7-108.3-3.1-146.3c-21.1-21.2-53.3-32.6-83-30-2.9 1-5.9 1.4-8.9 1.3-2.7 0.5-5.4 0.9-8 1.7l-9.1-9.2-0.1 0.1-63.3-63.8-73 73.4 36.2 36.6z m36.9-182.9l93.4 93.9c42.2-2.8 85 11.7 115.4 42.3 56.6 56.9 54.3 149.5-6.2 210.3-60.5 60.9-156.2 66.8-212.8 9.8-30.3-30.4-44.8-73.3-42.1-115.4l-93.7-94.2 146-146.7zM354.9 291.6c15.8-44.1 8.1-100.4-27-135.5-27.6-27.6-68.5-38-106.1-33.7l88 87.8-108.5 108.4-87.9-87.8c-4.3 37.6 6.1 78.3 33.7 105.9 35.1 35.1 91.6 42.9 135.6 27.1l36.2 36.1L346 427l72.3-72.3-63.4-63.1z m-9 207.8l-80.8-80.7c-54.5 10.3-112.1-3.8-154.2-45.8-52.1-52-61.1-127.7-34.4-192 0.5-5.7 2.9-11.3 7.3-15.7 10-10 26.2-10 36.2 0l90.4 90.3 36.2-36.1-90.5-90.4c-10-10-10-26.1 0-36.1 4.2-4.2 9.8-6.7 15.7-7.2C236.2 58.9 312 67.9 364 120c42.1 42.1 56.1 99.7 45.8 154.3l80.7 80.6-144.6 144.5zM217.7 767l252.9-253 18.1 18.1-252.9 253-18.1-18.1z m36.1 36.2l253-252.9 18.1 18.1-253 253-18.1-18.2z m335-312.5l-40.9-41c-13.8-13.8-35.8-14.3-49.1-1L147.3 800.2c-13.3 13.3-12.9 35.3 1 49.1l50.1 50c13.8 13.8 26.7 5.2 40-8.1l351.5-351.5c13.2-13.2 12.7-35.2-1.1-49z m270.3-238.3l-18.2-18.2-227 226.9 18 18c20 20 20.2 52.3 0.4 72.1L249.8 933.7c-19.8 19.8-52.1 19.6-72.1-0.4l-72.5-72.5c-20-20-20.2-52.3-0.4-72.1l382.5-382.5c19.8-19.8 52.1-19.6 72.1 0.4l18 18 227-226.9-17.9-17.9 99.9-99.9 72.7 72.6-100 99.9z" p-id="4642" fill="#808080"></path></svg>